<svg xmlns="http://www.w3.org/2000/svg" version="1.1" xmlns:xlink="http://www.w3.org/1999/xlink" xmlns:svgjs="http://svgjs.dev/svgjs" viewBox="0 0 4.192188574218751 4.47646890307216"><g transform="matrix(0.8571428571428572,0,0,0.8571428571428572,0.59888408203125,2.9508505118370953)"><g transform="matrix(1,0,0,1,0,0)" clip-path="url(#SvgjsClipPath17968)"><g clip-path="url(#SvgjsClipPath179661adbb93d-5115-4365-b557-e4e70e08d830)"><path d=" M 2.470270807369035 -1.4851354036845177 C 2.470270807369035 -0.8029888942876944 1.917281913081341 -0.25000000000000044 1.2351354036845177 -0.25000000000000044 C 0.5529888942876944 -0.25000000000000044 -2.742551527400478e-17 -0.8029888942876944 -2.742551527400478e-17 -1.4851354036845177 C -2.742551527400478e-17 -2.167281913081341 0.5529888942876944 -2.7202708073690354 1.2351354036845177 -2.7202708073690354 C 1.917281913081341 -2.7202708073690354 2.470270807369035 -2.167281913081341 2.470270807369035 -1.4851354036845177 Z" fill="#d4d6c9" transform="matrix(1,0,0,1,0,0)" fill-rule="nonzero"></path></g><g clip-path="url(#SvgjsClipPath179661adbb93d-5115-4365-b557-e4e70e08d830)"><path d=" M 1.7724611365933616 -0.9147241196040761 C 1.6522883300390534 -0.9147241196040761 1.5321155234847454 -0.9146656128822872 1.4119427169304373 -0.9148703864085479 C 1.4050974304811412 -0.9148703864085479 1.4018503074218598 -0.9136709986118765 1.4001243591290886 -0.9061821382229032 C 1.3793837262549395 -0.8171934143820547 1.2993172774868915 -0.7713533978604863 1.2195433623277876 -0.7763264692125396 C 1.147638601249285 -0.7808314867902808 1.0851826757396823 -0.8343651372270837 1.070585248653363 -0.9050997638698091 C 1.0689178070823804 -0.9132029448375656 1.0656999373839935 -0.9148996397694422 1.0580355568296536 -0.9148996397694422 C 0.8183042642998202 -0.9146656128822868 0.5785729717699869 -0.9146656128822868 0.3388416792401535 -0.9146363595213924 C 0.314649149780462 -0.9146363595213924 0.3042934600238346 -0.9306672012915387 0.3140640825625734 -0.952782742127726 C 0.31529272372013933 -0.955591064773591 0.3166676316821774 -0.9583701340585615 0.31804253964421564 -0.9610906966217432 C 0.3426738695173235 -1.0096220223455985 0.36715893258595933 -1.0582118547912427 0.3919950359853283 -1.10662616707152 C 0.44114068228796655 -1.2024309240007702 0.4904618487559712 -1.2981186674864424 0.5397537618630817 -1.3938649176939037 C 0.5420062706519525 -1.3982236684671736 0.5444050462452956 -1.4025531658795487 0.5470378487257942 -1.406677889765663 C 0.5527422541002074 -1.4156294181993578 0.5605821548199139 -1.4200759290553109 0.5716106718771131 -1.4201929424988884 C 0.651998907615 -1.4211290500475104 0.7323871433528865 -1.4224454512877593 0.8128046324516678 -1.423586332362642 C 0.8821058444105666 -1.4245809466330526 0.9514363097303596 -1.4256048142643576 1.0207375216892582 -1.4262776415649292 C 1.028167875356443 -1.4263361482867178 1.029747556844742 -1.4286471637973777 1.0297183034838475 -1.4356679704120405 C 1.0292502497095366 -1.4911323426678749 1.0375874575644486 -1.5448122599091496 1.0637107088431725 -1.5945722267905706 C 1.0661094844365153 -1.5991650044509957 1.064559056309111 -1.6021488472622272 1.0624820676856064 -1.6055422371259809 C 1.0508977367714132 -1.62449841498557 1.0412148743153575 -1.6443029403110974 1.0353934554973665 -1.6658626672902903 C 1.0270855010033493 -1.6966372029512282 1.0296012900402698 -1.7274994986948493 1.0343403345051672 -1.758420301160259 C 1.0419462083377182 -1.8080632545981024 1.0547591804094776 -1.8564775668783802 1.0689178070823804 -1.9045700921888187 C 1.0703804751271018 -1.909513910179977 1.0703804751271018 -1.913814154231458 1.0689178070823804 -1.9188457323052992 C 1.061224173167146 -1.9457295709672784 1.0643250294219553 -1.9727596764337292 1.0705559952924684 -1.9992339680431863 C 1.0881665185509137 -2.074210332015604 1.126312901157247 -2.1357301499765846 1.1902607480724656 -2.18042928542327 C 1.2145995443366293 -2.197454741463827 1.2369491120599718 -2.1994732233655423 1.26310161669959 -2.1824477673249856 C 1.321725351932023 -2.1442721313577575 1.3718071057832826 -2.098666141723345 1.4024061212788537 -2.0345427746427602 C 1.4250482226111405 -1.9871230766328931 1.4272422246782226 -1.9392938315705042 1.402698654887798 -1.8917571201170595 C 1.4002121192117716 -1.8869010622085844 1.4020843343090148 -1.8844730332543471 1.4042198296543082 -1.8811674034732766 C 1.4205724583942931 -1.8562435399912245 1.4323615628347475 -1.8295059681337178 1.438709542148838 -1.8002233538783958 C 1.4477488306652162 -1.7584203011602588 1.439323862727621 -1.7199228782231923 1.4160674408165512 -1.6850236186761403 C 1.4073206859091172 -1.671859606273648 1.4065308451649676 -1.6633176248924753 1.4156871471249237 -1.649568545272094 C 1.4467542163948055 -1.6030264480890601 1.4559105183547614 -1.5505459186444572 1.4521660881602747 -1.495315573275778 C 1.4507326734764479 -1.4741361399882125 1.4497673125669317 -1.4528981999788582 1.445964375650656 -1.431952793578448 C 1.444589467688618 -1.4243761731067912 1.4501183528976647 -1.4267749487001344 1.453365475956946 -1.4267164419783456 C 1.5042078171914612 -1.4260436146777735 1.5550209050650818 -1.4256048142643571 1.6058632462995968 -1.4249319869637855 C 1.698888933943876 -1.423674092445325 1.7919146215881556 -1.4215678504609264 1.8849695625933294 -1.4214800903782432 C 1.9109758004284751 -1.4214508370173486 1.9253977073494284 -1.4119142413657655 1.9368942781809382 -1.3885993127329066 C 1.978989864508019 -1.3031209921993894 2.023250199541288 -1.2186957926580715 2.066428160221463 -1.1337440326206543 C 2.092522158139292 -1.082404384250934 2.1180895955610217 -1.0308307089940585 2.1438618065090127 -0.979344793819866 C 2.148191303921388 -0.9706857989951154 2.1526378147773406 -0.9621145642530484 2.1566747785807716 -0.9533093026238257 C 2.1660358540669886 -0.9329197100804094 2.1544807765136897 -0.9146656128822868 2.1321019554294525 -0.9146363595213924 C 2.0122216824840886 -0.9145778527996036 1.8923706628996193 -0.9146363595213924 1.7724903899542557 -0.9146071061604979 Z M 1.0916184151364565 -1.5691803095342078 C 1.0909163344749901 -1.5685367355945306 1.0903020138962072 -1.568214948624692 1.0900679870090517 -1.5677176414894864 C 1.088312785355386 -1.5638269444905277 1.0863528101754596 -1.5599947542133576 1.084948648852527 -1.5559577904099267 C 1.0564266219804601 -1.4755403013111457 1.0582403303559147 -1.395181318934153 1.088722332407908 -1.316050977714727 C 1.1100772858608403 -1.2606158588197867 1.1510904978348278 -1.2251607854157405 1.2083100717443278 -1.2085741297886003 C 1.2138097035924802 -1.2069944483003012 1.2148920779455739 -1.2078427957662397 1.2148920779455739 -1.213488694418864 C 1.2150383447500461 -1.2486219808530714 1.2154771451634625 -1.2837552672872787 1.2159451989377734 -1.3188593003605917 C 1.217203093456234 -1.4168288059960295 1.2190753085534771 -1.5147983116314672 1.2196311224104712 -1.6127678172669047 C 1.2202161896283596 -1.7138381791571518 1.221678857673081 -1.8149085410473988 1.2184317346137996 -1.9159496495767514 C 1.217963680839489 -1.9304300632194928 1.217700400591439 -1.9449104768622345 1.217963680839489 -1.9593908905049764 C 1.2181392010048553 -1.970331647479492 1.2258913416418784 -1.9781422948383043 1.2355156973761452 -1.9782008015600931 C 1.245900640493667 -1.978259308281882 1.2532432340781683 -1.970653434449331 1.253565021048007 -1.9589813434524543 C 1.2546473954011008 -1.9177341045913114 1.2563148369720833 -1.8764576123692742 1.2564611037765554 -1.8352103735081315 C 1.2568121441072884 -1.7326188368513744 1.2566073705810277 -1.6300273001946173 1.2543256084312622 -1.52743576353786 C 1.2526581668602799 -1.4528981999788588 1.2521023530032855 -1.378331383058963 1.2513125122591362 -1.3037938194999616 C 1.250961471928403 -1.2699769343060034 1.2512540055373473 -1.2361600491120452 1.2512540055373473 -1.201728843339304 C 1.2537990479351626 -1.2026649508879261 1.255817529836878 -1.2032792714667089 1.2577482516559104 -1.2041276189326475 C 1.309117153386525 -1.2262724131297291 1.3460348948352925 -1.263775221796385 1.3714268120916555 -1.312862361377234 C 1.408198286735951 -1.3839187749897985 1.419782617650144 -1.4602115402024654 1.4154531202377687 -1.539224867978314 C 1.413493145057842 -1.575147995156671 1.4019088141436489 -1.6083505597718464 1.379471486337623 -1.6385400282148954 C 1.369817877242462 -1.6285646321498957 1.360778588726084 -1.6184137159195293 1.3508909527437676 -1.6091989072377848 C 1.339423635273152 -1.5985214305113187 1.3273127438628591 -1.5884582743636357 1.315201852452566 -1.5784828782986358 C 1.3061625639361876 -1.571023271270557 1.296040901066716 -1.5712865515186067 1.2896051616699415 -1.5784243715768471 C 1.282496594972596 -1.5862642722965536 1.2834912092430064 -1.5954790809782984 1.2925597511202787 -1.6044306094119931 C 1.2953973271270383 -1.607238932057858 1.2985566901036363 -1.6097547210947787 1.3015697862757625 -1.6123582702143828 C 1.3276345308326976 -1.6350296249075642 1.353114208171744 -1.658286046818634 1.3741766280157317 -1.6859012195029737 C 1.414838799658986 -1.7392593497744093 1.4187587500188394 -1.7874396351675315 1.3777747914057463 -1.8539617778414594 C 1.3636161647328435 -1.834713066372926 1.3479656166543246 -1.8169562763100089 1.3314082143880788 -1.7999893269912408 C 1.3262303695097653 -1.7947237220302439 1.3210525246314517 -1.7893703569865638 1.3153188658961439 -1.7847483259652441 C 1.3080932857552199 -1.778926907147253 1.2986737035472142 -1.779482721004247 1.292559751120279 -1.7852748864613437 C 1.286796839024077 -1.7907452649486015 1.285714464670983 -1.79978455346498 1.290629029301247 -1.8072441604930587 C 1.2932910851426398 -1.8113103776573842 1.2968307418108658 -1.8148792876865045 1.3002241316746193 -1.8183896909938357 C 1.3277515442762755 -1.8467361977005359 1.3537577821114213 -1.8762820922039078 1.3723044129184885 -1.9115323920816927 C 1.3822798089834882 -1.9305470766630706 1.386170505982447 -1.9506441355975424 1.3833329299756876 -1.9722038625767355 C 1.3802613270817727 -1.9954895378486999 1.3720996393922273 -2.016844491301632 1.360369041673562 -2.0368537901534203 C 1.3298285328997794 -2.0889247725455014 1.2858899848363494 -2.1271004085127294 1.234521083105735 -2.157611663925617 C 1.228845931092216 -2.160975800428476 1.2247212072061018 -2.1591620920530215 1.2202161896283599 -2.1562367559635787 C 1.1458248928738308 -2.107939457126879 1.1070641896887143 -2.0389307787769244 1.1005406902092572 -1.9509951759282753 C 1.0996338360215299 -1.9389135378788769 1.103407519576911 -1.9289088884529828 1.1103698194697849 -1.919284532718716 C 1.1290334637204296 -1.8935123217707255 1.1501543902862061 -1.8699048595289225 1.1723576912050768 -1.8471749981139527 C 1.1749319869637862 -1.844542195633454 1.1775355360833903 -1.8418216330702724 1.1794370045415281 -1.838720776815463 C 1.1843223158108978 -1.8307053559303899 1.182918154487965 -1.8219293476620617 1.1762483882040355 -1.816224942287648 C 1.169490861837423 -1.8104620301914458 1.1605978401255168 -1.810257256665185 1.1534600200672767 -1.816224942287648 C 1.1492182827375848 -1.819764598955874 1.145415345821309 -1.823860069481094 1.1415539021832446 -1.827838526562736 C 1.126605434766192 -1.8432550477540992 1.1124468080932894 -1.8593736496069289 1.0986977284729083 -1.8767208926173242 C 1.0976446074807091 -1.8742051035804033 1.0967962600147707 -1.8725669153703155 1.096269699518671 -1.8708409670775445 C 1.085182675739683 -1.834683813012032 1.0769624813283487 -1.7978538316459478 1.0706730087360468 -1.7605850498664473 C 1.0666652982935103 -1.7368605741810665 1.0640617491739064 -1.7129313249694247 1.0677476726466042 -1.6889143156750999 C 1.0736568515472784 -1.6503583860162443 1.093256603346545 -1.6188525163329461 1.1195261214297407 -1.591003316761451 C 1.1349718959819985 -1.5746214346605714 1.1517633251354 -1.5597022206044135 1.169169074867584 -1.5453973271270385 C 1.180928925947144 -1.535714464670983 1.1804316188119388 -1.5215850913589746 1.168408487484329 -1.5147690582705728 C 1.1602175464338895 -1.5101177738883589 1.1531382330974378 -1.5126920696470685 1.1464099600917197 -1.5181917014952209 C 1.127131995262292 -1.534076276460895 1.1091996850340078 -1.5513942661103963 1.0917354285800347 -1.569180309534208 Z M 2.1160418602984126 -0.9506472467824332 C 2.115486046441418 -0.9525194618796762 2.115339779636946 -0.9537188496763476 2.1148132191408466 -0.9547427173076528 C 2.0985776038444395 -0.9871554411786785 2.082254228465349 -1.019509658327915 2.0661063732516247 -1.0519516355598353 C 2.0641463980716983 -1.055900839280583 2.0613380754258332 -1.0567784401074156 2.0572426049006136 -1.0566906800247327 C 2.010407974108635 -1.055959346002372 1.9636025966775514 -1.0573927606861988 1.9168557259682564 -1.0601718299711695 C 1.8769248883473626 -1.0625706055645128 1.8369647973655747 -1.0647061009098058 1.7970924664664705 -1.0679824773299815 C 1.7323255254462078 -1.0732773356518728 1.6676463445086287 -1.0783381670866088 1.602528363157633 -1.0753543242753774 C 1.5474150312325317 -1.0728385352384564 1.4929452732471076 -1.0666368227288379 1.439879676584616 -1.0510155280112135 C 1.363645418093738 -1.0285489468442934 1.2954558338488273 -0.9938544608235023 1.2495280572445764 -0.9252260761651749 C 1.2411030893069812 -0.9126471309805717 1.2270322227167616 -0.9133492116420376 1.218226961087539 -0.9259281568266415 C 1.2092169259320553 -0.9387996356201898 1.200031370611205 -0.9514663408874768 1.1888858401104283 -0.9626703781100421 C 1.1541328473678485 -0.9975988910179887 1.1121250211234506 -1.0206505394027976 1.0666067915717214 -1.0379685290522986 C 0.9962817119815177 -1.0647353542706999 0.9228265227756104 -1.0740086696742335 0.8481719457730313 -1.0759978982150544 C 0.7784611867616106 -1.0778701133122977 0.7092184815245006 -1.0704105062842189 0.6398880162047074 -1.0652619147667997 C 0.5723127525385798 -1.0602595900538525 0.5046789821506636 -1.05502323845375 0.43692819831916957 -1.0571587337990433 C 0.41449087051314365 -1.0578608144605095 0.40311131312521137 -1.0511910481765803 0.3944815716613552 -1.0307429489113753 C 0.3827509739426899 -1.0029815094225636 0.3672759460295377 -0.9768290047829455 0.35332209288289584 -0.9497696459556 C 0.5181355281621003 -0.9497696459556 0.6820128558926831 -0.9497696459556 0.8459194369841604 -0.9497696459556 C 0.9170928640403024 -0.9497696459556 0.9882662910964446 -0.9497988993164945 1.0594397181525865 -0.9495941257902338 C 1.0654074037750498 -0.9495941257902338 1.0680694596164426 -0.9505009799779609 1.0680987129773372 -0.957404773149046 C 1.0681279663382315 -0.9659175011693242 1.0696783944656363 -0.974517989272286 1.073101037690284 -0.9825334101573593 C 1.0763189073886714 -0.9900515239072272 1.0821695795675568 -0.9943225145978132 1.090126493730841 -0.9947028082894409 C 1.0969425268192425 -0.9950245952592796 1.1027931989981279 -0.9920992591698368 1.106011068696515 -0.9856050130512739 C 1.1087316312596969 -0.9801053812031215 1.1080295505982307 -0.9743132157460248 1.1071226964105034 -0.9684332902062447 C 1.1026176788327613 -0.9393261961162895 1.1041388535992718 -0.9108041692442226 1.1167763055056645 -0.8836863036950882 C 1.1370488846055027 -0.8400987959623913 1.1885347997796951 -0.8063696708511165 1.2495865639663652 -0.8133027173830962 C 1.3042610954780502 -0.8195044298927148 1.3524998875929612 -0.8614537494153236 1.363850191619999 -0.9150166532130204 C 1.3680626755887966 -0.9348211785385478 1.3674776083709081 -0.9546549572249694 1.3656053932736647 -0.974664256076758 C 1.3645815256423597 -0.9858097865775346 1.3699933974078287 -0.9925673129441475 1.379178952728679 -0.9945565414849686 C 1.387750187470746 -0.9963995032213173 1.3958533684385028 -0.9915141919519481 1.4004461460989277 -0.9820361030221536 C 1.4043368430978869 -0.9739621754152916 1.4044831099023587 -0.9653324339514353 1.4043075897369923 -0.9567611992093683 C 1.4042198296543091 -0.9519636480226823 1.4055069775336637 -0.9502962064516998 1.410450795524822 -0.9503839665343832 C 1.4193730705976224 -0.9505302333388552 1.428295345670423 -0.9498281526773888 1.4372468741041178 -0.9498281526773888 C 1.5875798957405807 -0.9499744194818611 1.7379421707379377 -0.9502669530908054 1.888275192374401 -0.9503547131734886 C 1.9578981913031381 -0.9503839665343827 2.0275211902318757 -0.9499744194818611 2.097173442521507 -0.9498281526773888 C 2.1032873949484427 -0.9498281526773888 2.109401347375378 -0.9503254598125943 2.116071113659308 -0.9506179934215386 Z M 1.2514880324245026 -0.9858975466602182 C 1.2802148328228304 -1.0147998672239125 1.3114866756189736 -1.0367691412556277 1.3463274284442366 -1.053706837213501 C 1.429026679692783 -1.0939009550824446 1.5176058564811092 -1.1075330212592476 1.6082912752538348 -1.1105753707922683 C 1.6538387581664584 -1.1120965455587783 1.6994154944399762 -1.1109849178447901 1.7449337239917055 -1.1072989943720923 C 1.7909492606786401 -1.1035545641776057 1.8370233040873634 -1.1005999747272686 1.8830680941351923 -1.097148078141726 C 1.934992809722801 -1.0932573811427668 1.9869760320321983 -1.0917947130980454 2.0390470144242796 -1.0912681526019459 C 2.046243341204309 -1.091209645880157 2.045775287429998 -1.093462154669028 2.043113231588605 -1.0985522394646585 C 2.034776023733693 -1.1146415879565934 2.026877616292198 -1.1309649633356842 2.018628168519969 -1.1470835651885136 C 1.9792238913951754 -1.2241661711453302 1.9397611075485928 -1.3012195237412523 1.900356830423799 -1.3783021296980686 C 1.8978995481086673 -1.3830996808847547 1.8956470393197962 -1.3864053106658247 1.888918766314078 -1.3864930707485081 C 1.7416866009324243 -1.3881605123194904 1.5944836889116654 -1.3901497408603114 1.4472515235300116 -1.3922852362056048 C 1.4406695173287656 -1.392372996288288 1.4377149278784285 -1.3909688349653555 1.4359889795856573 -1.3840065350724817 C 1.427476251565379 -1.3496338360215292 1.4151605866288246 -1.3166067915717208 1.3974623032876963 -1.285773749188994 C 1.365634646634559 -1.230221616850476 1.321345058240396 -1.188945124628439 1.2602055339710423 -1.1675024110928238 C 1.2534187542435353 -1.1651328888603754 1.250464164793198 -1.1625000863798767 1.2503471513496203 -1.1549819726300088 C 1.2494988038836818 -1.099283573487019 1.2509029652066144 -1.0436144277049233 1.2515172857853973 -0.9859268000211125 Z M 1.214628797697524 -0.9894079499675494 C 1.214628797697524 -1.0469785642077825 1.214424024171263 -1.1041981381172827 1.2148628245846795 -1.1614177120267828 C 1.2149213313064682 -1.169579399716328 1.211966741856131 -1.17203668203146 1.204770415076102 -1.1736456168806533 C 1.1615046943132437 -1.1832114658931312 1.1249379931952093 -1.204683432789641 1.0952165785264711 -1.2374764503522941 C 1.0583573437994922 -1.278167875356443 1.0412441276762525 -1.327576801907131 1.03343348031744 -1.380817918734989 C 1.0322048391598742 -1.3891258732290064 1.03012785053637 -1.3924022496491824 1.0206790149674698 -1.3922267294838155 C 0.9304323966081608 -1.3905300345519387 0.8401857782488521 -1.3894769135597393 0.7499099065286489 -1.3882190190412789 C 0.6957034287912747 -1.387458431658024 0.6414969510539005 -1.3865223241094022 0.5872612199556319 -1.3859957636133025 C 0.5795968394012919 -1.3859080035306195 0.5750040617408668 -1.3834507212154874 0.5714936584335356 -1.3764884213226138 C 0.5600263409629199 -1.3537293065467493 0.5480032096353104 -1.3312627253798288 0.5361555984730672 -1.3087083841302254 C 0.5002324712947103 -1.2403432797199483 0.46662035962701304 -1.1707495341521053 0.42941008456930124 -1.1030572570424002 C 0.4231791186987882 -1.0917362063762566 0.42329613214236583 -1.0915899395717847 0.4368111848755914 -1.0915606862108902 C 0.48303149508878684 -1.0914729261282072 0.5291932985801935 -1.0929355941729286 0.5753551020716 -1.0957439168187932 C 0.6057785974018044 -1.0975868785551424 0.6362020927320091 -1.0994590936523856 0.6665670813404249 -1.1020626427719895 C 0.7267119913393677 -1.1071819809285144 0.7868569013383108 -1.1119210253934115 0.8473235983070925 -1.1108386510403176 C 0.912441579658088 -1.1096977699654351 0.9768282269867228 -1.1026769633507725 1.0396059394661645 -1.084773906483383 C 1.1051042145087875 -1.0661102622327383 1.1651613644250474 -1.0371201815863607 1.214628797697524 -0.9894079499675494 Z" fill="#343432" transform="matrix(1,0,0,1,0,0)" fill-rule="nonzero"></path></g><g clip-path="url(#SvgjsClipPath179661adbb93d-5115-4365-b557-e4e70e08d830)"><path d=" M 1.0916184151364565 -1.5691803095342078 C 1.1090826715904296 -1.551394266110396 1.1270442351796082 -1.5340762764608948 1.1462929466481413 -1.5181917014952206 C 1.1529919662929653 -1.512662816286174 1.1600712796294166 -1.5101177738883589 1.1682914740407508 -1.5147690582705726 C 1.1803146053683606 -1.5215850913589741 1.1808119125035657 -1.5357144646709828 1.1690520614240059 -1.5453973271270385 C 1.151675565052716 -1.5597022206044133 1.1348841358993145 -1.5746214346605714 1.1194091079861623 -1.5910033167614508 C 1.0931395899029663 -1.6188525163329457 1.0735398381037 -1.6503583860162443 1.0676306592030258 -1.6889143156750996 C 1.063944735730328 -1.7129313249694245 1.066548284849932 -1.7368898275419604 1.0705559952924684 -1.7605850498664468 C 1.076874721245665 -1.797824578285053 1.0850656622961043 -1.8346838130120315 1.0961526860750925 -1.870840967077544 C 1.0966792465711923 -1.8725669153703153 1.0975275940371307 -1.8742051035804033 1.0985807150293299 -1.876720892617324 C 1.112329794649711 -1.8593736496069284 1.1264884213226138 -1.843284301114993 1.1414368887396662 -1.8278385265627355 C 1.1452983323777306 -1.8238600694810936 1.1491012692940064 -1.8197645989558737 1.1533430066236983 -1.816224942287648 C 1.1604808266819384 -1.8102865100260792 1.1693738483938445 -1.8104620301914456 1.1761313747604571 -1.816224942287648 C 1.1828011410443866 -1.8219293476620613 1.1842345557282137 -1.8307053559303894 1.1793199910979497 -1.8387207768154625 C 1.177418522639812 -1.841821633070272 1.1748149735202078 -1.8445421956334538 1.1722406777614984 -1.8471749981139522 C 1.1500373768426277 -1.8699048595289223 1.1289164502768512 -1.8935123217707253 1.1102528060262065 -1.919284532718716 C 1.1032905061333327 -1.9289088884529826 1.0995168225779515 -1.9388842845179823 1.1004236767656788 -1.9509951759282753 C 1.1069471762451362 -2.0389307787769244 1.1457078794302527 -2.1079394571268786 1.2200991761847817 -2.1562367559635787 C 1.2246041937625236 -2.159162092053021 1.2287289176486378 -2.1609758004284756 1.2344040696621565 -2.1576116639256164 C 1.2857437180318767 -2.1271004085127285 1.3296822660953072 -2.088924772545501 1.3602520282299837 -2.03685379015342 C 1.3720118793095435 -2.0168444913016317 1.3801443136381941 -1.9954895378486994 1.3832159165321092 -1.972203862576735 C 1.3860534925388688 -1.950644135597542 1.3821920489008042 -1.9305470766630703 1.3721873994749103 -1.9115323920816922 C 1.3536700220287377 -1.8762528388430129 1.3276637841935914 -1.846706944339641 1.3001071182310409 -1.8183896909938353 C 1.296684475006393 -1.814879287686504 1.2931740716990616 -1.8113103776573838 1.2905120158576686 -1.8072441604930587 C 1.285597451227405 -1.7997845534649795 1.286679825580499 -1.7907452649486015 1.292442737676701 -1.7852748864613435 C 1.2985566901036363 -1.7794827210042468 1.3079762723116417 -1.7789269071472527 1.3152018524525655 -1.7847483259652437 C 1.3209355111878733 -1.7893703569865633 1.3261133560661869 -1.7947237220302437 1.3312912009445006 -1.7999893269912404 C 1.347877856571641 -1.816927022949114 1.3635284046501595 -1.8346838130120315 1.3776577779621682 -1.8539617778414592 C 1.4186709899361554 -1.787439635167531 1.414751039576302 -1.7392593497744089 1.3740596145721535 -1.6859012195029732 C 1.35302644808906 -1.6582860468186338 1.327546770750014 -1.6350296249075638 1.3014527728321843 -1.6123582702143824 C 1.2984396766600583 -1.6097254677338841 1.29528031368346 -1.6072389320578577 1.2924427376767005 -1.604430609411993 C 1.283374195799428 -1.5954498276174034 1.2823795815290173 -1.5862350189356589 1.2894881482263634 -1.5784243715768467 C 1.295953140984032 -1.5712865515186063 1.3060455504926092 -1.571052524631451 1.3150848390089875 -1.5784828782986355 C 1.3271957304192805 -1.5884582743636353 1.339277368468679 -1.5985214305113185 1.3507739393001892 -1.6091989072377846 C 1.3606615752825058 -1.618413715919529 1.369700863798884 -1.6285646321498954 1.3793544728940448 -1.6385400282148952 C 1.4018210540609648 -1.608350559771846 1.413376131614264 -1.5751479951566707 1.4153361067941905 -1.5392248679783138 C 1.4196656042065658 -1.4602115402024651 1.4080812732923724 -1.3839187749897983 1.3713097986480773 -1.3128623613772339 C 1.3458886280308195 -1.2637752217963847 1.3090001399429467 -1.2262724131297285 1.257631238212332 -1.204127618932647 C 1.2557005163932997 -1.2033085248276032 1.2536820344915842 -1.2026649508879257 1.251136992093769 -1.2017288433393039 C 1.251136992093769 -1.2361600491120448 1.2508444584848246 -1.2699769343060032 1.2511954988155576 -1.3037938194999612 C 1.2519853395597071 -1.378360636419857 1.2525411534167012 -1.4528981999788584 1.2542085949876836 -1.5274357635378593 C 1.2565196104983436 -1.6300273001946166 1.25669513066371 -1.7326188368513737 1.256344090332977 -1.835210373508131 C 1.256197823528505 -1.8764868657301683 1.2545303819575224 -1.917734104591311 1.2534480076044285 -1.9589813434524537 C 1.2531554739954842 -1.9706534344493305 1.2457836270500886 -1.9782593082818816 1.2353986839325668 -1.9782008015600927 C 1.2257743281983 -1.9781422948383038 1.218022187561277 -1.9703316474794916 1.2178466673959105 -1.959390890504976 C 1.2176126405087548 -1.944910476862234 1.2178466673959105 -1.9304300632194926 1.2183147211702212 -1.915949649576751 C 1.2215325908686083 -1.814908541047398 1.220069922823887 -1.713808925796257 1.2195141089668928 -1.6127678172669044 C 1.2189582951098987 -1.5147983116314667 1.2170860800126553 -1.4168288059960292 1.215828185494195 -1.3188593003605915 C 1.2153893850807787 -1.283726013926384 1.2149213313064677 -1.248621980853071 1.2147750645019955 -1.2134886944188636 C 1.2147750645019955 -1.2078720491271338 1.2136634367880075 -1.2069944483003006 1.2081930583007492 -1.2085741297886 C 1.1509442310303548 -1.225131532054846 1.109960272417262 -1.2606158588197862 1.0886053189643297 -1.3160509777147265 C 1.0581233169123363 -1.3952105722950472 1.0562803551759874 -1.4755403013111452 1.0848316354089487 -1.5559577904099264 C 1.0862650500927755 -1.559965500852463 1.0881957719118076 -1.5638269444905275 1.0899509735654733 -1.567717641489486 C 1.0901850004526288 -1.5682149486246915 1.0907993210314118 -1.56853673559453 1.0915014016928781 -1.5691803095342076 Z" fill="#e9e9e5" transform="matrix(1,0,0,1,0,0)" fill-rule="nonzero"></path></g><g clip-path="url(#SvgjsClipPath179661adbb93d-5115-4365-b557-e4e70e08d830)"><path d=" M 2.1160418602984126 -0.9506472467824332 C 2.109342840653589 -0.9503547131734886 2.103228888226653 -0.9498281526773888 2.097144189160612 -0.9498574060382834 C 2.0275211902318753 -0.9500036728427554 1.9578981913031377 -0.9504132198952775 1.8882459390135056 -0.9503839665343827 C 1.7379129173770431 -0.9503254598125943 1.5875506423796857 -0.9500036728427554 1.4372176207432226 -0.9498574060382834 C 1.4282953456704224 -0.9498574060382834 1.4193438172367274 -0.9505594866997498 1.4104215421639272 -0.9504132198952775 C 1.4054777241727687 -0.9503254598125943 1.4041905762934141 -0.9520221547444712 1.4042783363760973 -0.9567904525702629 C 1.4044538565414637 -0.9653616873123299 1.4042783363760973 -0.9739914287761859 1.4004168927380327 -0.9820653563830479 C 1.3958533684385022 -0.9915434453128424 1.3877501874707454 -0.9964287565822119 1.379149699367784 -0.994585794845863 C 1.369964144046934 -0.992596566305042 1.3645522722814645 -0.9858390399384291 1.3655761399127695 -0.9746935094376523 C 1.367448355010013 -0.954684210585864 1.3680041688670073 -0.9348504318994422 1.363820938259104 -0.9150459065739149 C 1.352470634232066 -0.8614830027762181 1.3042610954780496 -0.8195629366145036 1.24955731060547 -0.8133319707439906 C 1.1884762930579056 -0.8063989242120111 1.1370196312446077 -0.8401280493232857 1.1167470521447693 -0.8837155570559827 C 1.104138853599271 -0.9108334226051171 1.1026176788327609 -0.9393847028380784 1.1070934430496082 -0.9684625435671392 C 1.1080002972373355 -0.9743424691069191 1.1086731245379073 -0.9801346345640158 1.10598181533562 -0.9856342664121682 C 1.1027931989981277 -0.9921285125307313 1.0969425268192419 -0.9950538486201739 1.090097240369946 -0.9947320616503352 C 1.082169579567556 -0.9943517679587077 1.0763189073886708 -0.9900807772681213 1.073071784329389 -0.9825626635182534 C 1.0696198877438468 -0.9745472426331803 1.0680987129773365 -0.9659467545302189 1.068069459616442 -0.9574340265099404 C 1.0680402062555476 -0.9505009799779609 1.0653781504141546 -0.9495941257902338 1.0594104647916915 -0.9496233791511282 C 0.9882370377355497 -0.9498281526773893 0.9170636106794076 -0.9497696459556 0.8458901836232653 -0.9497988993164945 C 0.681983602531788 -0.9497988993164945 0.5181062748012052 -0.9497988993164945 0.35329283952200075 -0.9497988993164945 C 0.36727594602953706 -0.9768582581438401 0.3827217205817948 -1.0030107627834584 0.39445231830046024 -1.0307722022722698 C 0.4031113131252108 -1.0512203015374746 0.41446161715224866 -1.057890067821404 0.43689894495827447 -1.0571879871599377 C 0.5046497287897685 -1.0550524918146444 0.572283499177685 -1.0602595900538525 0.6398587628438125 -1.065291168127694 C 0.7091892281636055 -1.0704397596451132 0.7784319334007155 -1.0778993666731922 0.8481426924121362 -1.076027151575949 C 0.9228265227756095 -1.074008669674233 0.9962524586206226 -1.0647646076315942 1.0665775382108262 -1.037997782413193 C 1.1120957677625554 -1.0206797927636921 1.1541035940069535 -0.9976281443788833 1.1888565867495333 -0.9626996314709366 C 1.2000021172503101 -0.9514955942483709 1.2091584192102658 -0.9388288889810841 1.218197707726644 -0.9259574101875359 C 1.2270029693558666 -0.9133784650029322 1.2410738359460862 -0.912676384341466 1.2494988038836812 -0.9252553295260695 C 1.2954265804879326 -0.9938837141843966 1.363616164732843 -1.0285782002051875 1.439850423223721 -1.0510447813721078 C 1.492886766525318 -1.0666660760897322 1.5473565245107421 -1.072867788599351 1.602499109796738 -1.0753835776362717 C 1.6676170911477335 -1.0783674204475033 1.7322962720853128 -1.0733065890127673 1.797063213105575 -1.0680117306908758 C 1.83693554400468 -1.0647353542707 1.8768956349864676 -1.0625998589254069 1.9168264726073614 -1.060201083332064 C 1.9635733433166564 -1.0573927606861988 2.010378720747741 -1.055988599363266 2.057213351539719 -1.0567199333856268 C 2.0613088220649387 -1.0567784401074156 2.0641171447108038 -1.0559300926414774 2.06607711989073 -1.0519808889207296 C 2.082224975104454 -1.0195389116888094 2.098548350483545 -0.9871846945395728 2.1147839657799516 -0.9547719706685471 C 2.115281272915157 -0.9537481030372419 2.115456793080524 -0.9525487152405705 2.1160126069375176 -0.950676500143327 Z" fill="#aac527" transform="matrix(1,0,0,1,0,0)" fill-rule="nonzero"></path></g><g clip-path="url(#SvgjsClipPath179661adbb93d-5115-4365-b557-e4e70e08d830)"><path d=" M 1.2514880324245026 -0.9858975466602182 C 1.2508737118457198 -1.0435851743440294 1.249469550522787 -1.0992543201261247 1.2503178979887255 -1.1549527192691147 C 1.2504349114323035 -1.1625000863798771 1.2533895008826406 -1.165103635499481 1.2601762806101477 -1.1674731577319293 C 1.321315804879501 -1.1889158712675447 1.3656053932736645 -1.2301923634895822 1.3974330499268015 -1.2857444958280997 C 1.4151020799070355 -1.3165775382108262 1.4274177448435899 -1.3495753292997406 1.4359597262247623 -1.3839772817115874 C 1.4376856745175337 -1.3909688349653555 1.4406402639678708 -1.392372996288288 1.447222270169117 -1.3922559828447105 C 1.5944544355507708 -1.390120487499417 1.7416573475715298 -1.3881605123194904 1.8888895129531833 -1.3864638173876138 C 1.8956470393197962 -1.3863760573049304 1.8978995481086673 -1.3830704275238603 1.9003275770629044 -1.378272876337174 C 1.9397318541876984 -1.3011902703803575 1.9791946380342809 -1.2241369177844355 2.0185989151590746 -1.1470543118276195 C 2.026848362931303 -1.1309064566138953 2.0347760237336927 -1.1146123345956993 2.04308397822771 -1.098522986103764 C 2.0457167807082084 -1.0934329013081336 2.0462140878434143 -1.0911511391583684 2.0390177610633846 -1.0912388992410516 C 1.9869760320321983 -1.0917654597371511 1.9349635563619063 -1.0932281277818725 1.8830388407742975 -1.0971188247808314 C 1.8369940507264688 -1.1005707213663738 1.7909200073177454 -1.1035253108167111 1.7449044706308108 -1.1072697410111978 C 1.6994154944399762 -1.1109556644838956 1.6538387581664582 -1.112067292197884 1.6082620218929398 -1.1105461174313738 C 1.5175766031202147 -1.1075037678983533 1.4289974263318883 -1.09387170172155 1.3462981750833418 -1.0536775838526067 C 1.3114866756189731 -1.0367398878947331 1.2801855794619355 -1.0147706138630181 1.2514587790636078 -0.9858682932993237 Z" fill="#e9e9e5" transform="matrix(1,0,0,1,0,0)" fill-rule="nonzero"></path></g><g clip-path="url(#SvgjsClipPath179661adbb93d-5115-4365-b557-e4e70e08d830)"><path d=" M 1.214628797697524 -0.9894079499675494 C 1.1651321110641526 -1.0371201815863604 1.1050749611478932 -1.0661102622327383 1.0396059394661645 -1.084773906483383 C 0.976828226986723 -1.1026769633507725 0.912441579658088 -1.1096977699654351 0.8473235983070925 -1.1108386510403176 C 0.7868861546992052 -1.1119210253934115 0.7267412447002624 -1.1071819809285144 0.6665670813404249 -1.1020626427719895 C 0.6362020927320091 -1.09948834701328 0.6057785974018046 -1.0976161319160367 0.5753551020716 -1.0957439168187932 C 0.5291932985801935 -1.0929355941729282 0.48303149508878673 -1.0914729261282068 0.4368111848755913 -1.0915606862108902 C 0.4232961321423657 -1.0915606862108902 0.4231791186987881 -1.0917362063762566 0.42941008456930113 -1.1030572570424002 C 0.4666203596270129 -1.1707787875129998 0.50023247129471 -1.2403432797199483 0.5361555984730669 -1.3087083841302254 C 0.5480032096353101 -1.331262725379829 0.5600263409629199 -1.3537293065467493 0.5714936584335354 -1.3764884213226138 C 0.5750040617408666 -1.3834799745763817 0.5796260927621861 -1.3859372568915138 0.5872612199556316 -1.3859957636133025 C 0.641467697693006 -1.3865223241094022 0.6957034287912744 -1.387458431658024 0.7499099065286486 -1.3882190190412789 C 0.8401565248879577 -1.3894769135597393 0.9304323966081608 -1.3905300345519387 1.0206790149674696 -1.3922267294838155 C 1.0301571038972641 -1.392402249649182 1.0322340925207685 -1.3891258732290064 1.03343348031744 -1.380817918734989 C 1.0412148743153578 -1.327576801907131 1.0583280904385979 -1.278167875356443 1.095216578526471 -1.2374764503522941 C 1.1249379931952093 -1.204683432789641 1.1615046943132437 -1.1832114658931314 1.2047704150761018 -1.1736456168806533 C 1.2119667418561308 -1.17203668203146 1.2149213313064682 -1.169579399716328 1.2148628245846793 -1.1614177120267828 C 1.214424024171263 -1.1041981381172827 1.2146287976975239 -1.0469785642077825 1.2146287976975239 -0.9894079499675494 Z" fill="#e9e9e5" transform="matrix(1,0,0,1,0,0)" fill-rule="nonzero"></path></g></g><g><path d=" M 0.6195 1.0574999999999999 L 0.40950000000000003 0.6674999999999999 L 0.378 0.6674999999999999 L 0.378 1.0574999999999999 L 0.084 1.0574999999999999 L 0.084 -2.220446049250313e-16 L 0.5475 -2.220446049250313e-16 Q 0.675 -2.220446049250313e-16 0.7635000000000001 0.0442499999999999 Q 0.852 0.08849999999999991 0.897 0.16574999999999984 Q 0.9420000000000001 0.24299999999999988 0.9420000000000001 0.33899999999999986 Q 0.9420000000000001 0.44699999999999984 0.88275 0.5287499999999998 Q 0.8235 0.6104999999999998 0.7095 0.6449999999999998 L 0.9480000000000001 1.0574999999999999 L 0.6195 1.0574999999999999 M 0.378 0.4664999999999999 L 0.5235 0.4664999999999999 Q 0.5835 0.4664999999999999 0.6135 0.43799999999999983 Q 0.6435 0.40949999999999986 0.6435 0.3554999999999998 Q 0.6435 0.3044999999999999 0.61275 0.2752499999999999 Q 0.582 0.24599999999999989 0.5235 0.24599999999999989 L 0.378 0.24599999999999989 L 0.378 0.4664999999999999 M 2.30851611328125 -2.220446049250313e-16 L 2.30851611328125 1.0574999999999999 L 2.0145161132812497 1.0574999999999999 L 2.0145161132812497 0.47399999999999987 L 1.8150161132812501 1.0574999999999999 L 1.56901611328125 1.0574999999999999 L 1.36801611328125 0.4694999999999999 L 1.36801611328125 1.0574999999999999 L 1.07401611328125 1.0574999999999999 L 1.07401611328125 -2.220446049250313e-16 L 1.42951611328125 -2.220446049250313e-16 L 1.69501611328125 0.6869999999999998 L 1.95451611328125 -2.220446049250313e-16 L 2.30851611328125 -2.220446049250313e-16 M 3.185262451171875 0.06674999999999986 Q 3.310512451171875 0.13349999999999984 3.378012451171875 0.25349999999999984 Q 3.445512451171875 0.37349999999999983 3.445512451171875 0.5279999999999999 Q 3.445512451171875 0.6809999999999998 3.377262451171875 0.8009999999999999 Q 3.309012451171875 0.9209999999999998 3.1837624511718747 0.9892499999999999 Q 3.058512451171875 1.0574999999999999 2.893512451171875 1.0574999999999999 L 2.475012451171875 1.0574999999999999 L 2.475012451171875 -2.220446049250313e-16 L 2.893512451171875 -2.220446049250313e-16 Q 3.060012451171875 -2.220446049250313e-16 3.185262451171875 0.06674999999999986 M 3.073512451171875 0.7274999999999998 Q 3.147012451171875 0.6569999999999998 3.147012451171875 0.5279999999999999 Q 3.147012451171875 0.39749999999999985 3.073512451171875 0.3262499999999998 Q 3.000012451171875 0.2549999999999999 2.871012451171875 0.2549999999999999 L 2.769012451171875 0.2549999999999999 L 2.769012451171875 0.7979999999999998 L 2.871012451171875 0.7979999999999998 Q 3.000012451171875 0.7979999999999998 3.073512451171875 0.7274999999999998" fill="#343432" fill-rule="nonzero"></path></g><g></g></g><defs><clipPath id="SvgjsClipPath17968"><path d=" M 0 -2.7202708073690354 h 2.4702708073690354 v 2.4702708073690354 h -2.4702708073690354 Z"></path></clipPath><clipPath id="SvgjsClipPath179661adbb93d-5115-4365-b557-e4e70e08d830"><path d=" M 0 -2.7202708073690354 L 2.4702708073690354 -2.7202708073690354 L 2.4702708073690354 -0.25 L 0 -0.25 Z"></path></clipPath></defs></svg>