<?xml version="1.0" standalone="no"?>
<!DOCTYPE svg PUBLIC "-//W3C//DTD SVG 20010904//EN"
 "http://www.w3.org/TR/2001/REC-SVG-20010904/DTD/svg10.dtd">
<svg version="1.0" xmlns="http://www.w3.org/2000/svg"
 width="1280.000000pt" height="960.000000pt" viewBox="0 0 1280.000000 960.000000"
 preserveAspectRatio="xMidYMid meet">

<g transform="translate(0.000000,960.000000) scale(0.100000,-0.100000)"
fill="#000000" stroke="none">
<path d="M4890 5480 l0 -1110 140 0 140 0 0 429 0 430 258 3 c141 2 262 -1
269 -5 7 -5 38 -57 69 -115 31 -59 133 -250 227 -424 l170 -318 158 0 c88 0
159 3 159 8 0 4 -110 209 -245 456 -135 247 -244 450 -243 450 2 1 39 19 83
41 113 56 199 143 253 255 56 119 67 173 66 330 0 153 -15 223 -70 335 -86
176 -257 293 -485 330 -74 12 -186 15 -521 15 l-428 0 0 -1110z m975 831 c120
-48 183 -109 226 -220 30 -76 33 -269 6 -347 -52 -150 -158 -226 -353 -253
-41 -6 -188 -11 -325 -11 l-249 0 0 431 0 430 318 -3 c306 -3 319 -4 377 -27z"/>
<path d="M6715 6578 c-3 -7 -4 -506 -3 -1108 l3 -1095 133 -3 133 -3 -3 950
c-2 522 1 943 5 935 5 -8 44 -119 87 -247 95 -285 78 -239 382 -1004 l251
-633 122 0 121 0 131 338 c73 185 197 504 277 708 79 205 181 481 226 615 45
134 82 244 83 245 1 1 1 -427 -1 -952 l-3 -954 135 0 136 0 0 1110 0 1110
-201 -2 -200 -3 -274 -712 c-282 -734 -301 -785 -381 -1038 -38 -122 -48 -145
-55 -125 -77 258 -189 565 -419 1156 -154 394 -280 718 -280 720 0 2 -90 4
-200 4 -151 0 -202 -3 -205 -12z"/>
<path d="M9340 5479 l0 -1111 433 5 c329 4 450 9 508 20 333 67 572 248 699
533 140 312 143 789 6 1104 -131 303 -385 494 -723 545 -74 11 -199 15 -510
15 l-413 0 0 -1111z m945 838 c195 -55 344 -176 429 -348 82 -167 116 -379 96
-597 -37 -407 -219 -643 -560 -728 -49 -12 -135 -17 -347 -21 l-283 -5 0 862
0 862 303 -4 c244 -4 314 -8 362 -21z"/>
<path d="M1950 5901 l0 -621 378 0 c444 0 434 2 543 -96 39 -35 74 -64 78 -64
4 0 29 23 56 51 48 50 131 99 168 99 14 0 17 9 17 49 0 80 11 111 55 157 l42
44 -89 0 -88 0 0 45 c0 29 4 45 13 45 10 1 639 0 660 0 4 0 7 -18 7 -40 l0
-41 78 3 77 3 3 493 2 492 -383 0 c-435 0 -442 -1 -551 -75 -36 -25 -68 -45
-72 -45 -3 0 -27 15 -53 34 -25 18 -66 44 -91 57 -45 24 -46 24 -447 27 l-403
3 0 -620z m840 414 l0 -45 -340 0 -340 0 0 45 0 45 340 0 340 0 0 -45z m998 3
l-3 -43 -337 -3 -338 -2 0 45 0 45 341 0 340 0 -3 -42z m-998 -253 l0 -45
-339 0 -339 0 -4 41 c-2 22 -2 42 1 45 2 2 157 4 343 4 l338 0 0 -45z m998 3
l-3 -43 -337 -3 -338 -2 0 45 0 45 341 0 340 0 -3 -42z m-1010 -207 c8 -1 12
-17 12 -46 l0 -45 -339 0 -339 0 -4 38 c-3 20 -3 42 -1 47 2 8 516 12 671 6z
m995 1 c13 -2 17 -11 17 -47 l0 -45 -340 0 -340 0 0 44 c0 34 4 45 17 48 17 3
611 3 646 0z m-995 -251 c7 -1 12 -17 12 -46 l0 -45 -340 0 -340 0 0 48 0 47
328 -1 c180 -1 333 -2 340 -3z"/>
<path d="M1721 6324 c-21 -26 -21 -35 -21 -636 l0 -609 25 -24 24 -25 469 0
c384 0 476 -3 503 -14 19 -8 61 -43 94 -79 67 -71 105 -86 174 -67 30 8 54 27
96 74 30 35 67 67 80 70 24 6 25 10 25 86 l0 79 -32 -11 c-18 -6 -71 -49 -119
-95 -47 -46 -90 -83 -95 -83 -5 0 -45 36 -89 81 -44 44 -93 88 -110 97 -26 15
-84 18 -460 22 l-430 5 -3 578 -2 577 -54 0 c-47 0 -57 -4 -75 -26z"/>
<path d="M4040 5941 l0 -409 63 -4 c34 -2 70 -8 80 -12 16 -8 17 14 17 372 0
239 -4 391 -10 408 -16 40 -39 53 -97 54 l-53 0 0 -409z"/>
<path d="M3334 5426 c-17 -8 -34 -21 -38 -31 -3 -9 -6 -273 -6 -586 l0 -570
25 -24 24 -25 396 0 c436 0 432 -1 454 62 16 44 15 1083 0 1128 -21 58 -35 60
-451 60 -290 -1 -380 -4 -404 -14z m784 -153 l-3 -88 -375 0 -375 0 -3 88 -3
87 381 0 381 0 -3 -87z m-618 -228 l0 -65 -70 0 -70 0 0 65 0 65 70 0 70 0 0
-65z m200 0 l0 -65 -65 0 -65 0 0 65 0 65 65 0 65 0 0 -65z m210 0 l0 -66 -67
3 -68 3 -3 49 c-5 73 -2 76 73 76 l65 0 0 -65z m210 0 l0 -65 -70 0 -70 0 0
65 0 65 70 0 70 0 0 -65z m-620 -211 l0 -64 -70 0 -70 0 0 65 0 64 58 3 c82 4
82 5 82 -68z m198 2 l3 -66 -66 0 -65 0 0 64 c0 73 3 76 80 71 l45 -3 3 -66z
m205 64 c4 0 7 -29 7 -65 l0 -66 -67 3 -68 3 -3 55 c-4 66 9 79 76 74 26 -2
50 -3 55 -4z m215 -63 l3 -67 -71 0 -70 0 0 64 0 65 38 3 c20 2 51 3 67 2 30
-1 30 -1 33 -67z m-618 -212 l0 -65 -70 0 -70 0 0 65 0 65 70 0 70 0 0 -65z
m200 0 l0 -65 -65 0 -65 0 0 65 0 65 65 0 65 0 0 -65z m210 0 l0 -66 -67 3
-68 3 -3 49 c-5 73 -2 76 73 76 l65 0 0 -65z m210 -105 l0 -171 -67 3 -68 3
-3 168 -2 167 70 0 70 0 0 -170z m-625 -100 l0 -65 -67 -3 -68 -3 0 64 c0 35
3 67 7 71 4 4 34 6 68 4 l60 -3 0 -65z m205 0 l0 -70 -65 0 -65 0 0 63 c0 35
3 67 7 70 3 4 33 7 65 7 l58 0 0 -70z m208 -3 l3 -68 -68 3 -68 3 -3 54 c-5
80 -2 82 70 79 l63 -3 3 -68z"/>
</g>
</svg>
